{
  "accessors": [
    {
      "bufferView": 2,
      "componentType": 5126,
      "count": 52067,
      "max": [
        2.2273550033569336,
        7.420950412750244,
        2.5992841720581055
      ],
      "min": [
        -2.2273550033569336,
        0.35128915309906006,
        -2.5992841720581055
      ],
      "type": "VEC3"
    },
    {
      "bufferView": 2,
      "byteOffset": 624804,
      "componentType": 5126,
      "count": 52067,
      "max": [
        0.9998552203178406,
        0.9999270439147949,
        0.9998021125793457
      ],
      "min": [
        -0.9998375177383423,
        -0.9999667406082153,
        -1.0
      ],
      "type": "VEC3"
    },
    {
      "bufferView": 0,
      "componentType": 5125,
      "count": 77820,
      "type": "SCALAR"
    },
    {
      "bufferView": 2,
      "byteOffset": 1249608,
      "componentType": 5126,
      "count": 348,
      "max": [
        1.6586353778839111,
        4.879410266876221,
        2.538984775543213
      ],
      "min": [
        -1.6586353778839111,
        1.7557599544525146,
        -0.18747426569461823
      ],
      "type": "VEC3"
    },
    {
      "bufferView": 2,
      "byteOffset": 1253784,
      "componentType": 5126,
      "count": 348,
      "max": [
        0.9731975197792053,
        0.5833643078804016,
        0.9007035493850708
      ],
      "min": [
        -0.9731975793838501,
        -0.9393737316131592,
        0.07029322534799576
      ],
      "type": "VEC3"
    },
    {
      "bufferView": 1,
      "componentType": 5126,
      "count": 348,
      "max": [
        1.0,
        1.0
      ],
      "min": [
        0.0,
        0.0
      ],
      "type": "VEC2"
    },
    {
      "bufferView": 0,
      "byteOffset": 311280,
      "componentType": 5125,
      "count": 588,
      "type": "SCALAR"
    },
    {
      "bufferView": 2,
      "byteOffset": 1257960,
      "componentType": 5126,
      "count": 3768,
      "max": [
        7.745704650878906,
        7.3849568367004395,
        2.5991859436035156
      ],
      "min": [
        3.29542875289917,
        0.3546031713485718,
        -2.5991761684417725
      ],
      "type": "VEC3"
    },
    {
      "bufferView": 2,
      "byteOffset": 1303176,
      "componentType": 5126,
      "count": 3768,
      "max": [
        0.9999700784683228,
        0.9975908398628235,
        0.997719407081604
      ],
      "min": [
        -0.999970018863678,
        -0.9758752584457397,
        -0.9851431250572205
      ],
      "type": "VEC3"
    },
    {
      "bufferView": 1,
      "byteOffset": 2784,
      "componentType": 5126,
      "count": 3768,
      "max": [
        1.0,
        1.0
      ],
      "min": [
        0.0,
        0.0
      ],
      "type": "VEC2"
    },
    {
      "bufferView": 0,
      "byteOffset": 313632,
      "componentType": 5125,
      "count": 6360,
      "type": "SCALAR"
    }
  ],
  "asset": {
    "extras": {
      "author": "anasofia23 (https://sketchfab.com/anasofia23)",
      "license": "CC-BY-4.0 (http://creativecommons.org/licenses/by/4.0/)",
      "source": "https://sketchfab.com/3d-models/head-90fbb2bf8eb24582bede004731a50044",
      "title": "Head"
    },
    "generator": "Sketchfab-15.97.0",
    "version": "2.0"
  },
  "bufferViews": [
    {
      "buffer": 0,
      "byteLength": 339072,
      "name": "floatBufferViews",
      "target": 34963
    },
    {
      "buffer": 0,
      "byteLength": 32928,
      "byteOffset": 339072,
      "byteStride": 8,
      "name": "floatBufferViews",
      "target": 34962
    },
    {
      "buffer": 0,
      "byteLength": 1348392,
      "byteOffset": 372000,
      "byteStride": 12,
      "name": "floatBufferViews",
      "target": 34962
    }
  ],
  "buffers": [
    {
      "byteLength": 1720392,
      "uri": "scene.bin"
    }
  ],
  "materials": [
    {
      "doubleSided": true,
      "name": "lambert1",
      "pbrMetallicRoughness": {
        "baseColorFactor": [
          0.5,
          0.5,
          0.5,
          1.0
        ],
        "metallicFactor": 0.0,
        "roughnessFactor": 0.6
      }
    }
  ],
  "meshes": [
    {
      "name": "FemaleHead:Group12208_lambert1_0",
      "primitives": [
        {
          "attributes": {
            "NORMAL": 1,
            "POSITION": 0
          },
          "indices": 2,
          "material": 0,
          "mode": 4
        }
      ]
    },
    {
      "name": "polySurface1_lambert1_0",
      "primitives": [
        {
          "attributes": {
            "NORMAL": 4,
            "POSITION": 3,
            "TEXCOORD_0": 5
          },
          "indices": 6,
          "material": 0,
          "mode": 4
        }
      ]
    },
    {
      "name": "polySurface2_lambert1_0",
      "primitives": [
        {
          "attributes": {
            "NORMAL": 8,
            "POSITION": 7,
            "TEXCOORD_0": 9
          },
          "indices": 10,
          "material": 0,
          "mode": 4
        }
      ]
    }
  ],
  "nodes": [
    {
      "children": [
        1
      ],
      "matrix": [
        1.0,
        0.0,
        0.0,
        0.0,
        0.0,
        2.220446049250313e-16,
        -1.0,
        0.0,
        0.0,
        1.0,
        2.220446049250313e-16,
        0.0,
        0.0,
        0.0,
        0.0,
        1.0
      ],
      "name": "Sketchfab_model"
    },
    {
      "children": [
        2
      ],
      "matrix": [
        0.009999999776482582,
        0.0,
        0.0,
        0.0,
        0.0,
        0.0,
        0.009999999776482582,
        0.0,
        0.0,
        -0.009999999776482582,
        0.0,
        0.0,
        0.0,
        0.0,
        0.0,
        1.0
      ],
      "name": "555b85c3e1c44dfc89d5ab50441913fc.fbx"
    },
    {
      "children": [
        3,
        5,
        7
      ],
      "name": "RootNode"
    },
    {
      "children": [
        4
      ],
      "name": "FemaleHead:Group12208"
    },
    {
      "mesh": 0,
      "name": "FemaleHead:Group12208_lambert1_0"
    },
    {
      "children": [
        6
      ],
      "name": "polySurface1"
    },
    {
      "mesh": 1,
      "name": "polySurface1_lambert1_0"
    },
    {
      "children": [
        8
      ],
      "name": "polySurface2"
    },
    {
      "mesh": 2,
      "name": "polySurface2_lambert1_0"
    }
  ],
  "scene": 0,
  "scenes": [
    {
      "name": "Sketchfab_Scene",
      "nodes": [
        0
      ]
    }
  ]
}
