{
  "accessors": [
    {
      "bufferView": 0,
      "componentType": 5126,
      "count": 65535,
      "max": [
        18.62700080871582,
        16.835899353027344,
        9.995180130004883
      ],
      "min": [
        -12.056300163269043,
        -15.634300231933594,
        -0.2719169855117798
      ],
      "type": "VEC3"
    },
    {
      "bufferView": 1,
      "componentType": 5126,
      "count": 65535,
      "max": [
        1.0,
        1.0,
        1.0,
        1.0
      ],
      "min": [
        0.0,
        0.0,
        0.0,
        1.0
      ],
      "type": "VEC4"
    },
    {
      "bufferView": 0,
      "byteOffset": 786420,
      "componentType": 5126,
      "count": 65535,
      "max": [
        18.396299362182617,
        16.833799362182617,
        9.99724006652832
      ],
      "min": [
        -11.847299575805664,
        -15.455599784851074,
        -0.2831679880619049
      ],
      "type": "VEC3"
    },
    {
      "bufferView": 1,
      "byteOffset": 1048560,
      "componentType": 5126,
      "count": 65535,
      "max": [
        1.0,
        1.0,
        1.0,
        1.0
      ],
      "min": [
        0.0,
        0.0,
        0.0,
        1.0
      ],
      "type": "VEC4"
    },
    {
      "bufferView": 0,
      "byteOffset": 1572840,
      "componentType": 5126,
      "count": 65535,
      "max": [
        18.68630027770996,
        16.801799774169922,
        9.746210098266602
      ],
      "min": [
        -12.15060043334961,
        -15.431500434875488,
        -0.27835899591445923
      ],
      "type": "VEC3"
    },
    {
      "bufferView": 1,
      "byteOffset": 2097120,
      "componentType": 5126,
      "count": 65535,
      "max": [
        1.0,
        1.0,
        1.0,
        1.0
      ],
      "min": [
        0.0,
        0.0,
        0.0,
        1.0
      ],
      "type": "VEC4"
    },
    {
      "bufferView": 0,
      "byteOffset": 2359260,
      "componentType": 5126,
      "count": 65535,
      "max": [
        18.680099487304688,
        16.82539939880371,
        10.121999740600586
      ],
      "min": [
        -11.953700065612793,
        -15.971500396728516,
        -0.27302199602127075
      ],
      "type": "VEC3"
    },
    {
      "bufferView": 1,
      "byteOffset": 3145680,
      "componentType": 5126,
      "count": 65535,
      "max": [
        1.0,
        1.0,
        1.0,
        1.0
      ],
      "min": [
        0.0,
        0.0,
        0.0,
        1.0
      ],
      "type": "VEC4"
    },
    {
      "bufferView": 0,
      "byteOffset": 3145680,
      "componentType": 5126,
      "count": 65535,
      "max": [
        18.667600631713867,
        16.820999145507813,
        9.93772029876709
      ],
      "min": [
        -11.995800018310547,
        -16.271699905395508,
        -0.28312501311302185
      ],
      "type": "VEC3"
    },
    {
      "bufferView": 1,
      "byteOffset": 4194240,
      "componentType": 5126,
      "count": 65535,
      "max": [
        1.0,
        1.0,
        1.0,
        1.0
      ],
      "min": [
        0.0,
        0.0,
        0.0,
        1.0
      ],
      "type": "VEC4"
    },
    {
      "bufferView": 0,
      "byteOffset": 3932100,
      "componentType": 5126,
      "count": 65535,
      "max": [
        18.669599533081055,
        11.790800094604492,
        8.811220169067383
      ],
      "min": [
        -9.1354398727417,
        -15.679300308227539,
        -0.22179999947547913
      ],
      "type": "VEC3"
    },
    {
      "bufferView": 1,
      "byteOffset": 5242800,
      "componentType": 5126,
      "count": 65535,
      "max": [
        1.0,
        1.0,
        1.0,
        1.0
      ],
      "min": [
        0.0,
        0.0,
        0.0,
        1.0
      ],
      "type": "VEC4"
    },
    {
      "bufferView": 0,
      "byteOffset": 4718520,
      "componentType": 5126,
      "count": 65535,
      "max": [
        18.66390037536621,
        16.824499130249023,
        9.897259712219238
      ],
      "min": [
        -12.138400077819824,
        -15.581000328063965,
        -0.2803820073604584
      ],
      "type": "VEC3"
    },
    {
      "bufferView": 1,
      "byteOffset": 6291360,
      "componentType": 5126,
      "count": 65535,
      "max": [
        1.0,
        1.0,
        1.0,
        1.0
      ],
      "min": [
        0.0,
        0.0,
        0.0,
        1.0
      ],
      "type": "VEC4"
    },
    {
      "bufferView": 0,
      "byteOffset": 5504940,
      "componentType": 5126,
      "count": 65535,
      "max": [
        18.34239959716797,
        16.821500778198242,
        9.894559860229492
      ],
      "min": [
        -12.126099586486816,
        -15.591300010681152,
        -0.26440098881721497
      ],
      "type": "VEC3"
    },
    {
      "bufferView": 1,
      "byteOffset": 7339920,
      "componentType": 5126,
      "count": 65535,
      "max": [
        1.0,
        1.0,
        1.0,
        1.0
      ],
      "min": [
        0.0,
        0.0,
        0.0,
        1.0
      ],
      "type": "VEC4"
    },
    {
      "bufferView": 0,
      "byteOffset": 6291360,
      "componentType": 5126,
      "count": 65535,
      "max": [
        18.559600830078125,
        16.749900817871094,
        10.01609992980957
      ],
      "min": [
        -12.077099800109863,
        -15.97700023651123,
        -0.2806690037250519
      ],
      "type": "VEC3"
    },
    {
      "bufferView": 1,
      "byteOffset": 8388480,
      "componentType": 5126,
      "count": 65535,
      "max": [
        1.0,
        1.0,
        1.0,
        1.0
      ],
      "min": [
        0.0,
        0.0,
        0.0,
        1.0
      ],
      "type": "VEC4"
    },
    {
      "bufferView": 0,
      "byteOffset": 7077780,
      "componentType": 5126,
      "count": 65535,
      "max": [
        18.429000854492188,
        16.820600509643555,
        9.999950408935547
      ],
      "min": [
        -11.93280029296875,
        -15.339699745178223,
        -0.27385398745536804
      ],
      "type": "VEC3"
    },
    {
      "bufferView": 1,
      "byteOffset": 9437040,
      "componentType": 5126,
      "count": 65535,
      "max": [
        1.0,
        1.0,
        1.0,
        1.0
      ],
      "min": [
        0.0,
        0.0,
        0.0,
        1.0
      ],
      "type": "VEC4"
    },
    {
      "bufferView": 0,
      "byteOffset": 7864200,
      "componentType": 5126,
      "count": 65535,
      "max": [
        18.684799194335938,
        16.798099517822266,
        10.001299858093262
      ],
      "min": [
        -12.126099586486816,
        -15.468799591064453,
        -0.2741760015487671
      ],
      "type": "VEC3"
    },
    {
      "bufferView": 1,
      "byteOffset": 10485600,
      "componentType": 5126,
      "count": 65535,
      "max": [
        1.0,
        1.0,
        1.0,
        1.0
      ],
      "min": [
        0.0,
        0.0,
        0.0,
        1.0
      ],
      "type": "VEC4"
    },
    {
      "bufferView": 0,
      "byteOffset": 8650620,
      "componentType": 5126,
      "count": 65535,
      "max": [
        18.41900062561035,
        16.75079917907715,
        9.961009979248047
      ],
      "min": [
        -11.934100151062012,
        -15.644100189208984,
        -0.27027300000190735
      ],
      "type": "VEC3"
    },
    {
      "bufferView": 1,
      "byteOffset": 11534160,
      "componentType": 5126,
      "count": 65535,
      "max": [
        0.9960784316062927,
        1.0,
        1.0,
        1.0
      ],
      "min": [
        0.0,
        0.0,
        0.0,
        1.0
      ],
      "type": "VEC4"
    },
    {
      "bufferView": 0,
      "byteOffset": 9437040,
      "componentType": 5126,
      "count": 65535,
      "max": [
        18.592599868774414,
        16.814899444580078,
        10.092000007629395
      ],
      "min": [
        -11.960100173950195,
        -15.618200302124023,
        -0.26883599162101746
      ],
      "type": "VEC3"
    },
    {
      "bufferView": 1,
      "byteOffset": 12582720,
      "componentType": 5126,
      "count": 65535,
      "max": [
        1.0,
        1.0,
        1.0,
        1.0
      ],
      "min": [
        0.0,
        0.0,
        0.0,
        1.0
      ],
      "type": "VEC4"
    },
    {
      "bufferView": 0,
      "byteOffset": 10223460,
      "componentType": 5126,
      "count": 65535,
      "max": [
        18.16790008544922,
        16.809799194335938,
        9.771920204162598
      ],
      "min": [
        -12.145000457763672,
        -15.437299728393555,
        -0.2703790068626404
      ],
      "type": "VEC3"
    },
    {
      "bufferView": 1,
      "byteOffset": 13631280,
      "componentType": 5126,
      "count": 65535,
      "max": [
        1.0,
        1.0,
        1.0,
        1.0
      ],
      "min": [
        0.0,
        0.0,
        0.0,
        1.0
      ],
      "type": "VEC4"
    },
    {
      "bufferView": 0,
      "byteOffset": 11009880,
      "componentType": 5126,
      "count": 65535,
      "max": [
        18.5393009185791,
        16.826400756835938,
        9.926969528198242
      ],
      "min": [
        -12.050200462341309,
        -15.180299758911133,
        -0.27794599533081055
      ],
      "type": "VEC3"
    },
    {
      "bufferView": 1,
      "byteOffset": 14679840,
      "componentType": 5126,
      "count": 65535,
      "max": [
        1.0,
        1.0,
        1.0,
        1.0
      ],
      "min": [
        0.0,
        0.0,
        0.0,
        1.0
      ],
      "type": "VEC4"
    },
    {
      "bufferView": 0,
      "byteOffset": 11796300,
      "componentType": 5126,
      "count": 16980,
      "max": [
        18.314599990844727,
        16.79669952392578,
        9.922889709472656
      ],
      "min": [
        -12.088899612426758,
        -15.284899711608887,
        -0.2648540139198303
      ],
      "type": "VEC3"
    },
    {
      "bufferView": 1,
      "byteOffset": 15728400,
      "componentType": 5126,
      "count": 16980,
      "max": [
        1.0,
        1.0,
        1.0,
        1.0
      ],
      "min": [
        0.0,
        0.0,
        0.0,
        1.0
      ],
      "type": "VEC4"
    }
  ],
  "asset": {
    "extras": {
      "author": "MWintersberger (https://sketchfab.com/mwintersberger)",
      "license": "CC-BY-4.0 (http://creativecommons.org/licenses/by/4.0/)",
      "source": "https://sketchfab.com/3d-models/xr-lower-austria-sculpture-winter-point-cloud-85283c20504840f39d3f2f150fd64b2f",
      "title": "XR Lower Austria Sculpture | Winter Point Cloud"
    },
    "generator": "Sketchfab-12.68.0",
    "version": "2.0"
  },
  "bufferViews": [
    {
      "buffer": 0,
      "byteLength": 12000060,
      "byteStride": 12,
      "name": "floatBufferViews",
      "target": 34962
    },
    {
      "buffer": 0,
      "byteLength": 16000080,
      "byteOffset": 12000060,
      "byteStride": 16,
      "name": "floatBufferViews",
      "target": 34962
    }
  ],
  "buffers": [
    {
      "byteLength": 28000140,
      "uri": "scene.bin"
    }
  ],
  "extensionsUsed": [
    "KHR_materials_unlit"
  ],
  "materials": [
    {
      "doubleSided": true,
      "emissiveFactor": [
        0.7488567073170732,
        0.7488567073170732,
        0.7488567073170732
      ],
      "extensions": {
        "KHR_materials_unlit": {}
      },
      "name": "Scene_-_Root",
      "pbrMetallicRoughness": {
        "metallicFactor": 0.0
      }
    }
  ],
  "meshes": [
    {
      "name": "Object_0",
      "primitives": [
        {
          "attributes": {
            "COLOR_0": 1,
            "POSITION": 0
          },
          "material": 0,
          "mode": 0
        }
      ]
    },
    {
      "name": "Object_1",
      "primitives": [
        {
          "attributes": {
            "COLOR_0": 3,
            "POSITION": 2
          },
          "material": 0,
          "mode": 0
        }
      ]
    },
    {
      "name": "Object_2",
      "primitives": [
        {
          "attributes": {
            "COLOR_0": 5,
            "POSITION": 4
          },
          "material": 0,
          "mode": 0
        }
      ]
    },
    {
      "name": "Object_3",
      "primitives": [
        {
          "attributes": {
            "COLOR_0": 7,
            "POSITION": 6
          },
          "material": 0,
          "mode": 0
        }
      ]
    },
    {
      "name": "Object_4",
      "primitives": [
        {
          "attributes": {
            "COLOR_0": 9,
            "POSITION": 8
          },
          "material": 0,
          "mode": 0
        }
      ]
    },
    {
      "name": "Object_5",
      "primitives": [
        {
          "attributes": {
            "COLOR_0": 11,
            "POSITION": 10
          },
          "material": 0,
          "mode": 0
        }
      ]
    },
    {
      "name": "Object_6",
      "primitives": [
        {
          "attributes": {
            "COLOR_0": 13,
            "POSITION": 12
          },
          "material": 0,
          "mode": 0
        }
      ]
    },
    {
      "name": "Object_7",
      "primitives": [
        {
          "attributes": {
            "COLOR_0": 15,
            "POSITION": 14
          },
          "material": 0,
          "mode": 0
        }
      ]
    },
    {
      "name": "Object_8",
      "primitives": [
        {
          "attributes": {
            "COLOR_0": 17,
            "POSITION": 16
          },
          "material": 0,
          "mode": 0
        }
      ]
    },
    {
      "name": "Object_9",
      "primitives": [
        {
          "attributes": {
            "COLOR_0": 19,
            "POSITION": 18
          },
          "material": 0,
          "mode": 0
        }
      ]
    },
    {
      "name": "Object_10",
      "primitives": [
        {
          "attributes": {
            "COLOR_0": 21,
            "POSITION": 20
          },
          "material": 0,
          "mode": 0
        }
      ]
    },
    {
      "name": "Object_11",
      "primitives": [
        {
          "attributes": {
            "COLOR_0": 23,
            "POSITION": 22
          },
          "material": 0,
          "mode": 0
        }
      ]
    },
    {
      "name": "Object_12",
      "primitives": [
        {
          "attributes": {
            "COLOR_0": 25,
            "POSITION": 24
          },
          "material": 0,
          "mode": 0
        }
      ]
    },
    {
      "name": "Object_13",
      "primitives": [
        {
          "attributes": {
            "COLOR_0": 27,
            "POSITION": 26
          },
          "material": 0,
          "mode": 0
        }
      ]
    },
    {
      "name": "Object_14",
      "primitives": [
        {
          "attributes": {
            "COLOR_0": 29,
            "POSITION": 28
          },
          "material": 0,
          "mode": 0
        }
      ]
    },
    {
      "name": "Object_15",
      "primitives": [
        {
          "attributes": {
            "COLOR_0": 31,
            "POSITION": 30
          },
          "material": 0,
          "mode": 0
        }
      ]
    }
  ],
  "nodes": [
    {
      "children": [
        1
      ],
      "matrix": [
        1.0,
        0.0,
        0.0,
        0.0,
        0.0,
        2.220446049250313e-16,
        -1.0,
        0.0,
        0.0,
        1.0,
        2.220446049250313e-16,
        0.0,
        0.0,
        0.0,
        0.0,
        1.0
      ],
      "name": "Sketchfab_model"
    },
    {
      "children": [
        2,
        3,
        4,
        5,
        6,
        7,
        8,
        9,
        10,
        11,
        12,
        13,
        14,
        15,
        16,
        17
      ],
      "name": "Geode"
    },
    {
      "mesh": 0,
      "name": "Object_2"
    },
    {
      "mesh": 1,
      "name": "Object_3"
    },
    {
      "mesh": 2,
      "name": "Object_4"
    },
    {
      "mesh": 3,
      "name": "Object_5"
    },
    {
      "mesh": 4,
      "name": "Object_6"
    },
    {
      "mesh": 5,
      "name": "Object_7"
    },
    {
      "mesh": 6,
      "name": "Object_8"
    },
    {
      "mesh": 7,
      "name": "Object_9"
    },
    {
      "mesh": 8,
      "name": "Object_10"
    },
    {
      "mesh": 9,
      "name": "Object_11"
    },
    {
      "mesh": 10,
      "name": "Object_12"
    },
    {
      "mesh": 11,
      "name": "Object_13"
    },
    {
      "mesh": 12,
      "name": "Object_14"
    },
    {
      "mesh": 13,
      "name": "Object_15"
    },
    {
      "mesh": 14,
      "name": "Object_16"
    },
    {
      "mesh": 15,
      "name": "Object_17"
    }
  ],
  "scene": 0,
  "scenes": [
    {
      "name": "Sketchfab_Scene",
      "nodes": [
        0
      ]
    }
  ]
}
