<svg width="1396" height="1861" viewBox="0 0 1396 1861" preserveAspectRatio="none" fill="none" xmlns="http://www.w3.org/2000/svg">
<path d="M279.859 0.5H1336C1368.86 0.5 1395.5 27.1391 1395.5 60V1695.5C1395.5 1728.36 1368.86 1755 1336 1755H1170.18C1152.47 1755 1135.65 1762.76 1124.15 1776.24L1070.08 1839.62C1058.78 1852.87 1042.24 1860.5 1024.82 1860.5H60C27.1391 1860.5 0.5 1833.86 0.5 1801V163.5C0.5 130.639 27.1391 104 60 104H144.141C163.669 104 181.997 94.5734 193.355 78.6875L231.458 25.3945C242.628 9.77117 260.654 0.500118 279.859 0.5Z" fill="white"/>
</svg>
