<svg width="400" height="350" viewBox="0 0 400 350" fill="none" xmlns="http://www.w3.org/2000/svg">
<path d="M62 0.5H358C374.569 0.5 388 13.9315 388 30.5V319.5C388 336.069 374.569 349.5 358 349.5H275C266.716 349.5 258.799 352.768 252.929 358.642L235 376.571C229.13 382.441 221.213 385.709 212.929 385.709H42C25.4315 385.709 12 372.278 12 355.709V67.5C12 50.9315 25.4315 37.5 42 37.5H52C60.2843 37.5 68.201 34.2321 74.071 28.3579L87 15.4289C92.8701 9.5588 100.787 6.29102 109.071 6.29102H62Z" fill="white"/>
</svg>
