<svg width="1600" height="1872" viewBox="0 0 1600 1920" fill="none" xmlns="http://www.w3.org/2000/svg">
<path d="M276.816 48.7725L233.144 109.855C220.234 127.912 199.401 138.627 177.204 138.627H80.768C42.7885 138.627 20 169.416 20 207.397L20 1832.5C20 1870.48 42.7885 1900 80.7679 1900H980.357C999.323 1900 1017.17 1891.3 1028.49 1876.09L1082.48 1803.53C1093.8 1788.32 1111.65 1779.35 1130.61 1779.35H1346.96H1543.23C1581.21 1779.35 1580 1748.56 1580 1710.58V88.7695C1580 50.7892 1581.21 20 1543.23 20H332.756C310.559 20 289.726 30.715 276.816 48.7725Z" fill="white"/>
</svg>
